<svg xmlns="http://www.w3.org/2000/svg" viewBox="0 0 774.74 843.04"><defs><style>.cls-1{fill:#fff;}.cls-2{opacity:0.51;}</style></defs><g id="svg"><path class="cls-1" d="M648.81,136.48l-4.28,2.5Q485.86,231.77,326.75,324l2.07-3.6-1,375-1.65-2.88L648,881.27h-2.53L964.64,692.07l-.81,1.44-2.36-375,.41.71Zm-8.59-5,4.31,2.49L962.71,317.82l.4.23v.47l4,375v.95l-.82.49L648,885.57l-1.26.75-1.27-.74L322.81,698.25l-1.65-1v-1.92l-.67-375V318l2.08-1.22Q481,223.94,640.22,131.49Z" transform="translate(-251.62 -96.39)"/><polygon class="cls-1" points="713.23 226.44 394.46 412.25 395.7 410.07 395.14 787.03 390.65 410.09 390.63 408.66 391.89 407.9 708.13 217.83 713.23 226.44"/><polygon class="cls-1" points="75.54 219.66 393.17 410.08 70.52 228.3 75.54 219.66"/><polygon class="cls-1" points="549.41 320.43 233.1 130.71 554.44 311.78 549.41 320.43"/><polygon class="cls-1" points="714.83 414.38 394.15 598.55 709.73 405.78 714.83 414.38"/><polygon class="cls-1" points="238.1 316.11 233.1 692.48 228.1 316.11 238.1 316.11"/></g><g id="Layer_3" data-name="Layer 3"><g class="cls-2"><path class="cls-1" d="M251.77,277.85l36.79,20.66,36.72,20.77,1.89,1.07-1.9,1.12-16.33,9.6c-5.45,3.2-11,6.27-16.48,9.33s-11.08,6.07-16.69,9l-8.4,4.38c-2.83,1.42-5.63,2.88-8.48,4.25l-.15-.26c2.63-1.75,5.32-3.42,8-5.13l8-5c5.37-3.34,10.8-6.56,16.24-9.78s10.9-6.37,16.43-9.42L324,319.28v2.18l-36.23-21.61-36.16-21.74Z" transform="translate(-251.62 -96.39)"/></g><g class="cls-2"><path class="cls-1" d="M324.63,245.54l.64,18.71.5,18.7c.14,6.24.54,12.47.34,18.71s-.5,12.48-1.31,18.71h-.3a186.67,186.67,0,0,1-1.39-18.7c-.24-6.24.14-12.47.26-18.71l.4-18.71.56-18.71Z" transform="translate(-251.62 -96.39)"/></g><g class="cls-2"><path class="cls-1" d="M324.56,695.5c-3.7,2.48-7.44,4.89-11.17,7.33L302.15,710c-3.76,2.38-7.38,5-11.32,7.07a96.12,96.12,0,0,1-12.16,5.66l-.15-.26a96.15,96.15,0,0,1,10.78-8c3.71-2.46,7.73-4.4,11.63-6.56l11.7-6.43c3.93-2.09,7.83-4.23,11.78-6.3Z" transform="translate(-251.62 -96.39)"/></g><g class="cls-2"><path class="cls-1" d="M324.56,508.83c-4.43,2.94-8.89,5.8-13.34,8.7l-13.42,8.58c-4.48,2.84-8.83,5.9-13.49,8.44a136,136,0,0,1-14.34,7l-.16-.26a136.18,136.18,0,0,1,13-9.34c4.43-2.92,9.18-5.32,13.8-7.93l13.88-7.8c4.65-2.56,9.28-5.15,14-7.68Z" transform="translate(-251.62 -96.39)"/></g><g class="cls-2"><path class="cls-1" d="M587.09,915.56l29.49-16.7,29.55-16.58,1.93-1.07v2.24c0,4.67.05,9.34,0,14s-.15,9.34-.34,14-.4,9.33-.69,14-.64,9.32-1.09,14h-.3c-.29-4.68-.48-9.35-.6-14s-.18-9.34-.19-14,0-9.33.14-14,.33-9.33.48-14l1.92,1.17-30,15.69-30.1,15.56Z" transform="translate(-251.62 -96.39)"/></g><g class="cls-2"><path class="cls-1" d="M700,914.77c-4.56-2.4-9.08-4.86-13.63-7.29l-13.55-7.41c-4.5-2.49-9.14-4.76-13.47-7.55a128,128,0,0,1-12.64-9l.15-.26a128.09,128.09,0,0,1,14,6.63c4.56,2.42,8.8,5.35,13.17,8.07l13.1,8.19c4.34,2.77,8.7,5.51,13,8.32Z" transform="translate(-251.62 -96.39)"/></g><g class="cls-2"><path class="cls-1" d="M644.38,134c-.2-3.14-.32-6.27-.49-9.41l-.33-9.4a86.74,86.74,0,0,1-.19-9.4,48.39,48.39,0,0,1,1.47-9.38h.3a48.27,48.27,0,0,1,1.23,9.41,81.94,81.94,0,0,1-.41,9.39l-.57,9.39c-.24,3.13-.43,6.26-.71,9.39Z" transform="translate(-251.62 -96.39)"/></g><g class="cls-2"><path class="cls-1" d="M804.69,227.1c-.24-4.79-.4-9.59-.6-14.38l-.45-14.38c-.13-4.79-.52-9.59-.3-14.38a111.14,111.14,0,0,1,1.35-14.38h.3A114.78,114.78,0,0,1,806.34,184c.22,4.79-.17,9.59-.3,14.38l-.45,14.38c-.21,4.79-.36,9.59-.6,14.38Z" transform="translate(-251.62 -96.39)"/></g><g class="cls-2"><path class="cls-1" d="M962.45,268.09l.49,25.22.39,25.22-1.54-.91,15.86-9.14c5.28-3.06,10.54-6.15,15.88-9.1s10.76-5.77,16.19-8.55,10.93-5.46,16.49-8l.15.27c-5.1,3.38-10.28,6.62-15.5,9.78s-10.5,6.24-15.81,9.23-10.73,5.83-16.12,8.69l-16.13,8.64-1.56.84,0-1.74.4-25.22.49-25.22Z" transform="translate(-251.62 -96.39)"/></g><g class="cls-2"><path class="cls-1" d="M1014.34,347.74c-4.46-2.22-8.88-4.5-13.32-6.75l-13.25-6.88c-4.4-2.31-8.94-4.39-13.17-7a120.75,120.75,0,0,1-12.38-8.45l.15-.26a119.18,119.18,0,0,1,13.69,6.09c4.45,2.23,8.6,5,12.88,7.53l12.81,7.66c4.25,2.6,8.51,5.16,12.74,7.79Z" transform="translate(-251.62 -96.39)"/></g><g class="cls-2"><path class="cls-1" d="M965.57,693.36l15.5,8.25L996.49,710c5.13,2.81,10.39,5.4,15.35,8.51a166.4,166.4,0,0,1,14.52,9.94l-.15.26a164,164,0,0,1-15.87-7.6c-5.18-2.73-10.05-6-15.05-9l-15-9.16-14.9-9.29Z" transform="translate(-251.62 -96.39)"/></g><g class="cls-2"><path class="cls-1" d="M865.86,823l-14.93-8.29-14.85-8.41c-4.94-2.83-10-5.43-14.77-8.55a156.16,156.16,0,0,1-13.92-10l.16-.26a156,156,0,0,1,15.31,7.64c5,2.75,9.66,6,14.46,9.06l14.38,9.18L866,822.73Z" transform="translate(-251.62 -96.39)"/></g></g></svg>