<svg xmlns="http://www.w3.org/2000/svg" viewBox="0 0 570.08 558.86"><defs><style>.cls-1{fill:#fff;}.cls-2{opacity:0.51;}</style></defs><g id="Layer_3" data-name="Layer 3"><polygon class="cls-1" points="202.11 323.32 204.42 154.93 204.45 152.84 206.2 151.83 359.61 63.55 362.89 61.66 362.85 65.41 362 149.61 361.99 150.46 361.28 150.87 207.57 239.61 359.8 148.35 359.07 149.6 358.54 65.4 361.79 67.27 209.86 158.06 211.65 154.97 212.11 323.37 202.11 323.32"/><polygon class="cls-1" points="362.38 398.37 439.08 439.76 432.82 443.54 434.23 274.02 435.75 276.54 284.95 194.94 287.03 193.71 283.39 363.1 284.19 193.67 284.21 191.36 286.28 192.44 438.42 271.5 439.92 272.28 439.94 274.02 441.36 443.54 441.42 450.59 435.09 447.31 357.7 407.21 362.38 398.37"/><polygon class="cls-1" points="281.08 367.53 129.31 286.16 127.67 285.29 127.71 283.49 131.07 114.59 131.1 112.92 132.55 113.71 208.03 154.95 131.6 115.48 133.08 114.6 133.68 283.54 132.07 280.87 285.7 358.67 281.08 367.53"/><polygon class="cls-1" points="133.26 287.81 58.58 331.46 58.41 324.49 207.29 406.59 205.28 406.63 360.47 317.8 207.36 410.17 206.39 410.75 205.35 410.21 54.62 331.55 48.41 328.31 54.45 324.59 128.12 279.23 133.26 287.81"/><polygon class="cls-1" points="211.32 408.4 210.34 493.19 204.28 489.72 359.05 401.11 358.09 402.78 361.35 233.86 362 402.81 362 403.89 361.03 404.48 208.35 496.65 202.38 500.26 202.3 493.19 201.32 408.4 211.32 408.4"/><polygon class="cls-1" points="362.84 145.17 513.83 227.28 516.53 228.76 513.91 230.25 437.09 274.02 512.17 227.33 512.26 230.3 358.23 154.04 362.84 145.17"/></g><g id="Layer_4" data-name="Layer 4"><g class="cls-2"><path class="cls-1" d="M407.66,67.73l.12,32.7,0,32.7V135l-1.74-.86L391.31,127c-4.89-2.43-9.77-4.88-14.57-7.46-9.62-5.17-19.18-10.44-28.51-16.16l.14-.27c10.08,4.25,19.94,9,29.74,13.76,4.9,2.4,9.73,4.94,14.55,7.49L407.09,132l-1.74,1.05.93-32.68,1.08-32.69Z" transform="translate(-121.8 -23.15)"/></g><g class="cls-2"><path class="cls-1" d="M253.81,137.88c-5-2.33-9.88-4.72-14.82-7.08l-14.74-7.22c-4.91-2.42-9.94-4.62-14.68-7.35a145.91,145.91,0,0,1-13.91-8.81l.13-.27A145.2,145.2,0,0,1,211,113.57c4.95,2.35,9.61,5.23,14.4,7.88l14.33,8c4.75,2.71,9.52,5.39,14.26,8.14Z" transform="translate(-121.8 -23.15)"/></g><g class="cls-2"><path class="cls-1" d="M253.26,222.14c-4.56,3-9.16,5.85-13.74,8.78l-13.81,8.64c-4.62,2.87-9.1,6-13.89,8.52a143.56,143.56,0,0,1-14.73,7.09l-.16-.26a145.85,145.85,0,0,1,13.37-9.42c4.56-2.94,9.44-5.36,14.19-8l14.27-7.87c4.79-2.57,9.55-5.19,14.35-7.74Z" transform="translate(-121.8 -23.15)"/></g><g class="cls-2"><path class="cls-1" d="M121.8,384l27.92-17,28-16.84,1.77-1.07,0,2.11.28,16.27c.07,5.42.12,10.84,0,16.26-.2,10.85-.53,21.7-1.35,32.54h-.3c-.83-10.84-1.15-21.69-1.35-32.54-.1-5.42-.06-10.84,0-16.26l.29-16.27,1.8,1-28.44,16.07L122,384.21Z" transform="translate(-121.8 -23.15)"/></g><g class="cls-2"><path class="cls-1" d="M253,391.18c.17,5.48.27,11,.41,16.46l.25,16.46c.07,5.49.4,11,.11,16.46A144.79,144.79,0,0,1,252.25,457H252a147.37,147.37,0,0,1-1.16-16.47c-.15-5.49.3-11,.49-16.46l.65-16.45c.26-5.48.48-11,.79-16.45Z" transform="translate(-121.8 -23.15)"/></g><g class="cls-2"><path class="cls-1" d="M463.61,501.7l-29.27-14.89-29.2-15,1.76-1,.16,16.48c0,5.5,0,11-.11,16.48-.28,11-.69,22-1.6,33h-.3c-.74-11-1-22-1.1-33-.06-5.49,0-11,.15-16.48l.41-16.48.05-2,1.71.94,28.78,15.82,28.7,16Z" transform="translate(-121.8 -23.15)"/></g><g class="cls-2"><path class="cls-1" d="M328.27,516.34c.24,5.47.4,10.95.6,16.42l.45,16.42c.13,5.47.52,10.94.3,16.41A144,144,0,0,1,328.27,582H328a144,144,0,0,1-1.35-16.42c-.22-5.47.17-10.94.3-16.41l.45-16.42c.2-5.47.36-11,.6-16.42Z" transform="translate(-121.8 -23.15)"/></g><g class="cls-2"><path class="cls-1" d="M559,466.56c4.94,2.31,9.84,4.7,14.77,7.05l14.69,7.18c4.89,2.41,9.9,4.59,14.63,7.31a143,143,0,0,1,13.87,8.77l-.14.27a145,145,0,0,1-15.12-6.38c-4.93-2.33-9.58-5.21-14.35-7.85l-14.28-8c-4.73-2.71-9.49-5.38-14.21-8.11Z" transform="translate(-121.8 -23.15)"/></g><g class="cls-2"><path class="cls-1" d="M558.81,381.9c4.58-2.92,9.2-5.78,13.8-8.68l13.87-8.54c4.63-2.84,9.13-5.89,13.94-8.42a141.45,141.45,0,0,1,14.77-7l.15.26a142.25,142.25,0,0,1-13.42,9.32c-4.59,2.91-9.48,5.3-14.24,7.9l-14.32,7.77c-4.8,2.55-9.58,5.13-14.39,7.64Z" transform="translate(-121.8 -23.15)"/></g><g class="cls-2"><path class="cls-1" d="M691.89,219.37,663.7,236.24,635.44,253l-1.76,1,0-2.09-.28-16.38c-.07-5.46-.12-10.92,0-16.38.2-10.93.52-21.85,1.35-32.77h.3c.82,10.92,1.14,21.84,1.35,32.77.1,5.46,0,10.92,0,16.38l-.28,16.38-1.8-1,28.71-16,28.78-15.83Z" transform="translate(-121.8 -23.15)"/></g><g class="cls-2"><path class="cls-1" d="M558.1,212.17c-.21-5.44-.34-10.89-.52-16.33l-.36-16.34c-.1-5.44-.46-10.89-.21-16.33a144.76,144.76,0,0,1,1.43-16.32h.3A145,145,0,0,1,560,163.19c.19,5.44-.23,10.88-.39,16.33l-.54,16.32c-.23,5.45-.41,10.89-.68,16.33Z" transform="translate(-121.8 -23.15)"/></g><g class="cls-2"><path class="cls-1" d="M482.35,88.56c-.19-5.45-.29-10.91-.44-16.36l-.28-16.35c-.08-5.46-.41-10.91-.14-16.36A145.29,145.29,0,0,1,483,23.15h.3a142.86,142.86,0,0,1,1.19,16.36c.17,5.45-.28,10.9-.46,16.35l-.62,16.35c-.25,5.44-.47,10.89-.76,16.34Z" transform="translate(-121.8 -23.15)"/></g></g></svg>