<svg xmlns="http://www.w3.org/2000/svg" viewBox="0 0 744.23 748.45"><defs><style>.cls-1{fill:#fff;}.cls-2{opacity:0.51;}.cls-3{fill:none;}</style></defs><g id="svg"><path class="cls-1" d="M468.27,175l-4.38,2.51q-82.9,47.58-166.23,94.6l2.1-3.64.1,192-1.7-2.9,169.45,96.24-2.48,0L634,456.37l-.82,1.45-1.24-190.66.42.72Zm-8.85-4.95,4.45,2.46,169.26,93.87.42.24v.48l2.89,190.65v.95l-.84.5-168,99-1.23.72-1.26-.7L294.89,463.45l-1.68-.94,0-1.95-1.76-192,0-2.41,2.12-1.23Q376.14,217.32,459.42,170.09Z" transform="translate(-264.02 -131.52)"/><polygon class="cls-1" points="197.37 424.56 199.86 41.03 207.37 424.5 197.37 424.56"/><polygon class="cls-1" points="366.21 131.3 532.88 36.51 534.88 35.38 536.84 36.49 703.46 131.44 704.96 132.29 704.98 133.99 707.64 323.81 707.66 325 706.65 325.59 540.66 421.39 540.15 421.68 539.66 421.4 370.77 326.29 540.64 419.63 539.64 419.64 704.62 322.12 703.62 323.89 698.99 134.11 700.51 136.66 532.92 43.47 536.87 43.45 371.2 139.97 366.21 131.3"/><polygon class="cls-1" points="539.88 39.91 540.15 420.52 529.88 40.05 539.88 39.91"/><path class="cls-1" d="M637.87,460.29l-4.38,2.52q-82.9,47.57-166.24,94.59l2.11-3.64.1,192-1.7-2.9,169.45,96.25h-2.48l168.82-97.51-.82,1.44-1.24-190.66.42.72Zm-8.85-5,4.45,2.47,169.26,93.86.42.24v.48L806,743l0,1-.84.5-168,99-1.22.72-1.26-.7L464.49,748.7l-1.69-.94v-2L461,553.8l0-2.41,2.13-1.23Q545.74,502.56,629,455.34Z" transform="translate(-264.02 -131.52)"/><polygon class="cls-1" points="366.97 709.81 369.45 326.29 376.97 709.75 366.97 709.81"/></g><g id="Layer_4" data-name="Layer 4"><g class="cls-2"><path class="cls-1" d="M463.72,172.55c-.24-3.41-.39-6.83-.6-10.25L462.67,152a100.45,100.45,0,0,1-.3-10.26,59.14,59.14,0,0,1,1.35-10.26h.3a57.26,57.26,0,0,1,1.35,10.26,100.45,100.45,0,0,1-.3,10.26l-.45,10.26c-.2,3.42-.36,6.84-.6,10.25Z" transform="translate(-264.02 -131.52)"/></g><g class="cls-2"><path class="cls-1" d="M798.75,171.5c-.24-3.33-.4-6.66-.6-10l-.45-10a95.24,95.24,0,0,1-.3-10,54.36,54.36,0,0,1,1.35-10h.3a56.13,56.13,0,0,1,1.35,10,95.24,95.24,0,0,1-.3,10l-.45,10c-.21,3.33-.36,6.66-.6,10Z" transform="translate(-264.02 -131.52)"/></g><g class="cls-2"><path class="cls-1" d="M632.57,267.15c-.24-3.26-.4-6.52-.6-9.79l-.45-9.78a91.55,91.55,0,0,1-.3-9.79,52.28,52.28,0,0,1,1.35-9.79h.3a52.28,52.28,0,0,1,1.35,9.79,91.55,91.55,0,0,1-.3,9.79l-.45,9.78c-.2,3.27-.36,6.53-.6,9.79Z" transform="translate(-264.02 -131.52)"/></g><g class="cls-2"><path class="cls-1" d="M295.74,223.62l.35,11.23.31,11.23.51,22.45,0,2.13-2-1c-2.66-1.29-5.34-2.57-8-3.92s-5.24-2.74-7.82-4.22-5.13-3-7.67-4.5-5-3.14-7.49-4.85l.14-.27c2.8,1,5.54,2.19,8.26,3.38s5.41,2.43,8.08,3.72,5.33,2.6,7.93,4,5.19,2.86,7.77,4.31l-1.93,1.17.52-22.45.31-11.23.34-11.23Z" transform="translate(-264.02 -131.52)"/></g><g class="cls-2"><path class="cls-1" d="M264,478.83l15.94-9.7,16-9.58,1.7-1v2l.05,10.63c0,3.54,0,7.08-.14,10.62s-.37,7.08-.66,10.62-.64,7.07-1.18,10.6h-.3c-.37-3.55-.58-7.09-.71-10.64s-.2-7.09-.2-10.63.15-7.09.34-10.63l.51-10.61,1.71,1-16.43,8.84-16.49,8.72Z" transform="translate(-264.02 -131.52)"/></g><g class="cls-2"><path class="cls-1" d="M636.14,841.3c.23,3.22.39,6.45.6,9.67l.45,9.66a89.33,89.33,0,0,1,.3,9.67,52.71,52.71,0,0,1-1.35,9.67h-.3a51,51,0,0,1-1.35-9.67,86.85,86.85,0,0,1,.3-9.67l.45-9.66c.2-3.22.36-6.45.6-9.67Z" transform="translate(-264.02 -131.52)"/></g><g class="cls-2"><path class="cls-3" d="M965.49,457.81" transform="translate(-264.02 -131.52)"/></g><g class="cls-2"><path class="cls-1" d="M969.5,496.47l-.58-20.55-.44-20.55,0-2,1.78.95,9.77,5.19c3.26,1.74,6.5,3.49,9.67,5.39s6.31,3.82,9.41,5.82,6.17,4.07,9.18,6.25l-.15.26Q1003,475.1,998,472.64c-3.32-1.63-6.59-3.33-9.84-5.07s-6.44-3.6-9.6-5.49l-9.49-5.69,1.74-1-.44,20.55-.58,20.55Z" transform="translate(-264.02 -131.52)"/></g><g class="cls-2"><path class="cls-1" d="M1008.25,242l-10.38,6.22-10.39,6.21-20.83,12.31-1.88,1.11-.1-2.25c-.14-3.13-.27-6.26-.35-9.39s-.06-6.26,0-9.4.16-6.26.31-9.39.38-6.27.7-9.41h.3c.4,3.12.71,6.25,1,9.38s.44,6.26.57,9.39.25,6.26.26,9.39,0,6.26-.09,9.39l-2-1.14L986.69,253l10.7-5.65,10.71-5.63Z" transform="translate(-264.02 -131.52)"/></g><g class="cls-2"><path class="cls-1" d="M433.86,763.7,449.8,754l16-9.59,1.69-1v2l.05,10.63c0,3.54,0,7.09-.13,10.63s-.38,7.07-.66,10.61-.65,7.07-1.18,10.6h-.3c-.38-3.55-.58-7.1-.72-10.65s-.19-7.09-.19-10.63.15-7.08.33-10.62l.52-10.62,1.7,1-16.43,8.83L434,764Z" transform="translate(-264.02 -131.52)"/></g><g class="cls-2"><path class="cls-3" d="M800.13,745.12" transform="translate(-264.02 -131.52)"/></g><g class="cls-2"><path class="cls-1" d="M804.15,783.79l-.58-20.55-.44-20.55,0-2,1.78.95,9.77,5.19c3.26,1.74,6.5,3.49,9.66,5.39s6.32,3.81,9.42,5.82,6.17,4.07,9.17,6.25l-.14.26q-5.13-2.18-10.09-4.63c-3.32-1.63-6.59-3.33-9.85-5.07s-6.43-3.6-9.6-5.49l-9.49-5.69,1.74-1L805,763.24l-.57,20.55Z" transform="translate(-264.02 -131.52)"/></g></g></svg>