<svg xmlns="http://www.w3.org/2000/svg" viewBox="0 0 809.73 871.91"><defs><style>.cls-1{fill:#fff;}.cls-2{opacity:0.51;}</style></defs><g id="svg"><path class="cls-1" d="M654.87,163.85l0,2.87q1,169.79,1.64,339.16t.2,339.5l-4.5-2.56L940.87,674.16l-1,1.73.49-341,.48.85Zm-4.93-2.95,2.48,1.47L941.87,334l.48.29v.56l1.53,341V677l-1,.59L655.26,848l-4.47,2.65,0-5.22q-.84-171.37-1.13-343.52Q649.43,331.29,649.94,160.9Z" transform="translate(-253.78 -44.78)"/><polygon class="cls-1" points="401.18 121.89 111.45 291.22 113.09 288.33 113.08 628.59 112.27 627.18 399.97 800.61 110.57 630.03 109.77 629.56 109.76 628.61 106.41 288.36 106.39 286.46 108.05 285.47 396.1 113.28 401.18 121.89"/><path class="cls-1" d="M649.18,677.74q-71.55-42.18-142.67-84.9l-2.05-1.23v-2.34L504.89,419v-1.91l1.61-.95,144.62-85.61,1.31-.77,1.27.78L798,418.74l.81.5v.93l-.59,169.92v.47l-.4.24L653.41,675.26Zm8.41-5L797,589.38l-.41.71-1.09-169.92.81,1.42L651.12,334.85h2.58l-143.77,87,1.62-2.87,1.25,170.24-2-3.58q71.7,42.09,142.65,84.59Z" transform="translate(-253.78 -44.78)"/><polygon class="cls-1" points="685.55 635.4 543.62 545.31 690.66 626.8 685.55 635.4"/><polygon class="cls-1" points="690.13 294.42 543.37 375.39 685.04 285.81 690.13 294.42"/><polygon class="cls-1" points="108.89 624.29 254.86 544.48 113.95 632.91 108.89 624.29"/><polygon class="cls-1" points="251.89 378.54 109.75 288.34 257 369.94 251.89 378.54"/></g><g id="Layer_3" data-name="Layer 3" class="cls-2"><path class="cls-1" d="M363.68,218.66l.63,57.23.5,57.23v.73l-.64.38-21.1,12.66L337.8,350l-5.32,3.1c-3.54,2.05-7.08,4.13-10.65,6.15-7.12,4.06-14.25,8.12-21.44,12.06s-14.37,7.92-21.64,11.73l-.16-.26c6.88-4.49,13.82-8.85,20.79-13.18s14-8.61,21-12.85c3.51-2.14,7-4.21,10.57-6.3l5.29-3.14,5.32-3.08L362.87,332l-.63,1.1.5-57.23.64-57.23Z" transform="translate(-253.78 -44.78)"/><path class="cls-1" d="M363.44,333.25l-27.75-18L308,297.22c-9.21-6.05-18.57-11.87-27.58-18.21s-18-12.73-26.66-19.57l.16-.25c9.6,5.47,18.92,11.35,28.17,17.34s18.19,12.44,27.25,18.7l27.17,18.82L363.61,333Z" transform="translate(-253.78 -44.78)"/><path class="cls-1" d="M278.75,621l43.57,25.6,43.49,25.72.58.34v.69l.28,25.18.07,12.59-.06,12.58c-.11,8.4-.21,16.79-.45,25.18l-.36,12.59c-.18,4.19-.31,8.39-.54,12.58H365c-.23-4.19-.35-8.39-.53-12.58l-.36-12.59c-.24-8.39-.35-16.78-.45-25.18l-.06-12.58.07-12.59.28-25.18.58,1-43-26.5-43-26.63Z" transform="translate(-253.78 -44.78)"/><path class="cls-1" d="M365.28,673.51l-22.41,16.36-22.49,16.24c-7.51,5.4-14.87,11-22.58,16.12S282.33,732.38,274.27,737l-.17-.24c7.11-6,14.51-11.53,22-17s15.27-10.45,22.92-15.63l23-15.5,23.1-15.38Z" transform="translate(-253.78 -44.78)"/><path class="cls-1" d="M585.08,884.45l34-20.12,34.07-20,.58-.34.62.34,17.06,9.56,8.49,4.84,8.42,5c5.59,3.36,11.17,6.72,16.69,10.19l8.28,5.22c2.73,1.78,5.48,3.52,8.19,5.35l-.15.26c-2.94-1.43-5.82-3-8.73-4.43L704,875.69c-5.76-3.06-11.45-6.24-17.15-9.41l-8.48-4.85-8.43-5-16.77-10h1.2l-34.52,19.2-34.59,19.07Z" transform="translate(-253.78 -44.78)"/><path class="cls-1" d="M941.73,777.42l-.56-50.77-.44-50.77v-.64l.57-.35,24.41-14.58q12.19-7.3,24.51-14.4T1015,632l12.47-6.85c4.18-2.23,8.34-4.5,12.56-6.68l.15.26c-4,2.6-8,5.1-12,7.65l-12.08,7.49q-12.11,7.45-24.34,14.7t-24.58,14.27l-24.7,14.09.57-1-.43,50.77L942,777.42Z" transform="translate(-253.78 -44.78)"/><path class="cls-1" d="M942,675.75l30.67,15.47,30.6,15.61c10.19,5.21,20.5,10.2,30.52,15.73s20,11.13,29.76,17.2l-.14.26c-10.51-4.6-20.79-9.65-31-14.8S1012.17,714.4,1002.1,709l-30.18-16.4L941.81,676Z" transform="translate(-253.78 -44.78)"/><path class="cls-1" d="M1040,394.34l-49.64-29.18-49.59-29.29-.55-.32v-.66c0-22-.35-44.06-.11-66.09q.15-16.53.55-33.05l.44-16.52c.21-5.5.37-11,.63-16.52h.3c.22,5.51.34,11,.5,16.53l.32,16.52q.25,16.53.29,33.05c.06,22-.43,44.06-.64,66.09l-.55-1,49.14,30,49.07,30.13Z" transform="translate(-253.78 -44.78)"/><path class="cls-1" d="M941.28,334.77,967,316.94l25.76-17.7c8.6-5.89,17.06-12,25.85-17.58s17.63-11.12,26.75-16.21l.17.25c-8.21,6.46-16.7,12.51-25.26,18.45s-17.43,11.41-26.18,17.08l-26.25,17L941.44,335Z" transform="translate(-253.78 -44.78)"/><path class="cls-1" d="M652.57,44.78l.6,58.79.45,58.8-1.83-1,24.83-15.66,12.46-7.77,12.52-7.66c8.39-5,16.77-10.1,25.23-15l12.68-7.4c4.26-2.42,8.49-4.88,12.77-7.26l.16.26c-4,2.76-8.14,5.44-12.21,8.16l-12.31,8c-8.2,5.34-16.47,10.57-24.74,15.8l-12.47,7.76-12.53,7.65-25.13,15.17-1.85,1.12v-2.14l.46-58.8.6-58.79Z" transform="translate(-253.78 -44.78)"/><path class="cls-1" d="M652.34,162.5l-28.18-16.38-28.1-16.5c-9.35-5.52-18.84-10.81-28-16.63s-18.3-11.71-27.17-18l.16-.26c9.72,4.92,19.17,10.28,28.57,15.73s18.48,11.41,27.71,17.15l27.63,17.27,27.55,17.4Z" transform="translate(-253.78 -44.78)"/><path class="cls-1" d="M653.9,845.39l.26,17.84.12,17.83c0,6,.3,11.9,0,17.83a172.67,172.67,0,0,1-1.68,17.81h-.3a169.83,169.83,0,0,1-1-17.85c-.11-6,.39-11.88.63-17.82l.78-17.82.94-17.81Z" transform="translate(-253.78 -44.78)"/></g></svg>