<svg xmlns="http://www.w3.org/2000/svg" viewBox="0 0 1045.45 575.62"><defs><style>.cls-1{fill:#fff;}.cls-2{opacity:0.51;}</style></defs><g id="Layer_3" data-name="Layer 3"><polygon class="cls-1" points="643.61 361.28 549.19 520.48 548.06 522.39 545.89 522.35 167.72 515.87 165.54 515.84 166.67 513.99 263.87 354.41 168.8 515.27 167.75 513.38 545.97 514.82 542.68 516.68 634.98 356.24 643.61 361.28"/><path class="cls-1" d="M118.62,425h2.88c68.12.05,135.93,0,203.63.4q50.79.27,101.63.79L529,427.42l411.81,5.4-2.59,1.48,91.38-158,2.15,3.74-409.06-4.64c-34.08-.35-68.17-.86-102.26-1.35l-102.26-1.45-204.52-2.9.4-.22Zm-3,4.91,1.5-2.48L213.27,269l.13-.22h.26l204.53,1.88,102.27.95c34.09.31,68.17.66,102.26.83L1031.79,275l4.27,0-2.13,3.71L943.34,437.24l-.86,1.49h-1.73l-411.83-3.35-103.68-.83q-52.08-.46-104.28-1.16C252.35,432.46,183.84,431.18,115.63,429.94Z" transform="translate(-51.86 -75.03)"/><polygon class="cls-1" points="437.57 353.47 533.67 198.54 446.21 358.51 437.57 353.47"/><polygon class="cls-1" points="341.49 193.75 434.21 42.64 435.39 40.73 437.58 40.77 880.23 48.3 882.13 48.33 881.17 49.95 792.4 200.83 879.27 48.84 880.21 50.5 437.5 48.53 440.86 46.66 350.04 198.93 341.49 193.75"/></g><g id="Layer_4" data-name="Layer 4"><g class="cls-2"><path class="cls-1" d="M932.08,124.28c4.14-.24,8.28-.4,12.43-.6l12.42-.45c4.15-.13,8.29-.52,12.43-.3a83.17,83.17,0,0,1,12.43,1.35v.3a83.17,83.17,0,0,1-12.43,1.35c-4.14.22-8.28-.17-12.43-.3l-12.42-.45c-4.15-.2-8.29-.36-12.43-.6Z" transform="translate(-51.86 -75.03)"/></g><g class="cls-2"><path class="cls-1" d="M599.26,120.78c2.12-3.93,4.32-7.83,6.47-11.75l6.6-11.67c2.22-3.88,4.22-7.9,6.73-11.59A97.48,97.48,0,0,1,627.2,75l.26.16a96.86,96.86,0,0,1-5.84,12.14c-2.14,3.93-4.8,7.54-7.24,11.28L607,109.81c-2.5,3.71-5,7.44-7.5,11.13Z" transform="translate(-51.86 -75.03)"/></g><g class="cls-2"><path class="cls-1" d="M489.4,119.83c-5.13.24-10.25.4-15.37.6l-15.36.45c-5.12.13-10.24.52-15.36.3A126.4,126.4,0,0,1,428,119.83v-.3a126.4,126.4,0,0,1,15.36-1.35c5.12-.22,10.24.17,15.36.3l15.36.45c5.12.2,10.24.36,15.37.6Z" transform="translate(-51.86 -75.03)"/></g><g class="cls-2"><path class="cls-1" d="M213.66,269.37c-5.44.24-10.88.4-16.32.6l-16.32.45c-5.44.13-10.88.52-16.32.3a142.49,142.49,0,0,1-16.32-1.35v-.3a142.49,142.49,0,0,1,16.32-1.35c5.44-.22,10.88.17,16.32.3l16.32.45c5.44.2,10.88.36,16.32.6Z" transform="translate(-51.86 -75.03)"/></g><g class="cls-2"><path class="cls-1" d="M117.13,427.61c-5.44.24-10.88.4-16.32.6l-16.32.45c-5.44.13-10.87.52-16.31.3a142.49,142.49,0,0,1-16.32-1.35v-.3A142.49,142.49,0,0,1,68.18,426c5.44-.22,10.87.17,16.31.3l16.32.45c5.44.2,10.88.36,16.32.6Z" transform="translate(-51.86 -75.03)"/></g><g class="cls-2"><path class="cls-1" d="M219.59,589.81c-5.45.24-10.9.4-16.35.6l-16.35.45c-5.45.13-10.9.52-16.35.3a143,143,0,0,1-16.35-1.35v-.3a143,143,0,0,1,16.35-1.35c5.45-.22,10.9.17,16.35.3l16.35.45c5.45.2,10.9.36,16.35.6Z" transform="translate(-51.86 -75.03)"/></g><g class="cls-2"><path class="cls-1" d="M483.46,593.69c-2.43,4.86-4.93,9.69-7.39,14.53l-7.52,14.46c-2.52,4.81-4.82,9.75-7.65,14.39a142.92,142.92,0,0,1-9.09,13.59l-.26-.15a142.74,142.74,0,0,1,6.73-14.9c2.45-4.85,5.43-9.41,8.18-14.09l8.3-14c2.82-4.65,5.59-9.32,8.44-14Z" transform="translate(-51.86 -75.03)"/></g><g class="cls-2"><path class="cls-1" d="M597.79,593.47c5.45-.24,10.9-.4,16.35-.6l16.35-.45c5.46-.13,10.91-.52,16.36-.3a143,143,0,0,1,16.35,1.35v.3a147.69,147.69,0,0,1-16.35,1.35c-5.45.22-10.9-.17-16.36-.3l-16.35-.45c-5.45-.21-10.9-.37-16.35-.6Z" transform="translate(-51.86 -75.03)"/></g><g class="cls-2"><path class="cls-1" d="M940.78,435.62c5.44-.24,10.88-.4,16.32-.6l16.32-.45c5.44-.13,10.88-.52,16.32-.3a142.13,142.13,0,0,1,16.31,1.35v.3a142.13,142.13,0,0,1-16.31,1.35c-5.44.22-10.88-.17-16.32-.3l-16.32-.45c-5.44-.2-10.88-.36-16.32-.6Z" transform="translate(-51.86 -75.03)"/></g><g class="cls-2"><path class="cls-1" d="M1031.77,277.38c5.46-.24,10.92-.4,16.38-.6l16.39-.45c5.46-.13,10.92-.52,16.38-.3a143.7,143.7,0,0,1,16.39,1.35v.3a143.7,143.7,0,0,1-16.39,1.35c-5.46.22-10.92-.17-16.38-.3l-16.39-.45c-5.46-.2-10.92-.36-16.38-.6Z" transform="translate(-51.86 -75.03)"/></g></g></svg>