<svg xmlns="http://www.w3.org/2000/svg" viewBox="0 0 938.97 788.46"><defs><style>.cls-1{fill:#fff;}.cls-2{opacity:0.51;}</style></defs><g id="Layer_4" data-name="Layer 4"><path class="cls-1" d="M632.69,138.76l-1.45,2.54L535.64,309q-47.83,83.67-96,167.08L342.49,643.58l-97.7,168.25-2.93-5.05,808.36-3.31-1.4,2.54-209-334.74-52.25-83.69-52.12-83.67Zm-3.1-4.95,1.56,2.49L736,303.34,841.22,470.39l210.42,333.86,1.59,2.52-3,0L241.9,813.51l-5.86,0,2.93-5.09,194.5-338.07q49.06-85,98.59-169.85Z" transform="translate(-176.54 -79.25)"/><polygon class="cls-1" points="593.48 274.69 465.67 497.86 464.92 499.16 463.47 499.15 200.37 497.22 463.46 494.1 461.26 495.39 584.76 269.81 593.48 274.69"/><polygon class="cls-1" points="467.74 494.04 603.1 727.47 459.18 499.21 467.74 494.04"/></g><g id="Layer_3" data-name="Layer 3"><g class="cls-2"><path class="cls-1" d="M696.82,136.45l-32.83.6-32.84.45-2,0,1-1.82,8-14.39c2.67-4.78,5.37-9.55,8.19-14.25,5.65-9.39,11.4-18.72,17.59-27.81l.26.15c-4.76,9.91-10,19.57-15.25,29.16-2.65,4.8-5.43,9.52-8.22,14.24l-8.46,14.1-1-1.8,32.84.45,32.83.6Z" transform="translate(-176.54 -79.25)"/></g><g class="cls-2"><path class="cls-1" d="M596.73,80.57l17.79,27.51,17.65,27.58,1.15,1.8-2.17,0-16.35.28c-5.45.07-10.9.12-16.35,0-10.9-.2-21.8-.53-32.7-1.35v-.3c10.9-.83,21.8-1.15,32.7-1.35,5.45-.11,10.9-.06,16.35,0l16.35.29-1,1.83-16.89-28.06L596.48,80.73Z" transform="translate(-176.54 -79.25)"/></g><g class="cls-2"><path class="cls-1" d="M376.78,576.55c-2.94-4.6-5.81-9.23-8.73-13.84l-8.59-13.92c-2.85-4.65-5.93-9.17-8.47-14A144.66,144.66,0,0,1,344,520l.26-.15a143.33,143.33,0,0,1,9.37,13.46c2.93,4.6,5.33,9.51,7.95,14.29L369.35,562c2.56,4.82,5.16,9.61,7.69,14.45Z" transform="translate(-176.54 -79.25)"/></g><g class="cls-2"><path class="cls-1" d="M210.89,752.05,227,780.78l16,28.8.3.53-.31.62c-4.94,9.81-10.31,19.38-15.8,28.89S216,858.53,209.9,867.71l-.26-.15c4.63-10,9.7-19.72,14.87-29.4s10.55-19.25,16.32-28.6v1.15l-15.16-29.22-15-29.3Z" transform="translate(-176.54 -79.25)"/></g><g class="cls-2"><path class="cls-1" d="M176.54,810l32.67-.6,32.67-.45h.67l.37.61,8.39,13.88c2.77,4.65,5.53,9.3,8.15,14,5.25,9.45,10.4,19,15.12,28.73l-.26.15c-6.14-8.94-11.85-18.13-17.45-27.38-2.8-4.62-5.48-9.32-8.13-14l-7.9-14.17,1,.6-32.67-.46-32.67-.6Z" transform="translate(-176.54 -79.25)"/></g><g class="cls-2"><path class="cls-1" d="M779.77,806.79c-2.44,4.91-5,9.79-7.44,14.68l-7.57,14.61c-2.54,4.86-4.85,9.84-7.69,14.53a147.64,147.64,0,0,1-9.15,13.74l-.26-.15a145.34,145.34,0,0,1,6.78-15c2.46-4.9,5.46-9.51,8.22-14.24L771,820.75c2.83-4.7,5.62-9.42,8.49-14.1Z" transform="translate(-176.54 -79.25)"/></g><g class="cls-2"><path class="cls-1" d="M1081.22,747.05l-14.9,29.36-15,29.29-1.06-1.77,16.32-.29c5.44-.06,10.88-.11,16.32,0,10.88.21,21.76.53,32.64,1.35v.3c-10.88.82-21.76,1.15-32.64,1.35-5.44.1-10.88.06-16.32,0l-16.32-.28-2,0,1-1.73L1065,775.7l16-28.79Z" transform="translate(-176.54 -79.25)"/></g><g class="cls-2"><path class="cls-1" d="M1086.5,859.41l-18.69-26.76-18.58-26.85,2.07-.12c-4.59,9.88-9.63,19.53-14.77,29.12s-10.49,19.08-16.23,28.36L1020,863c4.28-10,9-19.85,13.84-29.6s9.86-19.4,15.3-28.84l1-1.74,1.06,1.62,17.82,27.35,17.7,27.44Z" transform="translate(-176.54 -79.25)"/></g><g class="cls-2"><path class="cls-1" d="M765.66,351.36c5.45-.24,10.9-.4,16.35-.6l16.35-.45c5.45-.13,10.9-.52,16.35-.3a143.18,143.18,0,0,1,16.36,1.35v.3A147.87,147.87,0,0,1,814.71,353c-5.45.22-10.9-.17-16.35-.3L782,352.26c-5.45-.21-10.9-.36-16.35-.6Z" transform="translate(-176.54 -79.25)"/></g></g></svg>