<svg id="Layer_1" data-name="Layer 1" xmlns="http://www.w3.org/2000/svg" viewBox="0 0 106.07 91.19"><defs><style>.cls-1{fill:#1d1d1b;fill-rule:evenodd;}</style></defs><title>favicon</title><path class="cls-1" d="M113.24,90.51,93.47,79.26c3.2-5.14,6.9-13.15,6.32-20.11,1.08.57,2.25,1.87,3.77,4.43.52-4.35,1.19-20.1-8-30h0c6-3.67,12.33-8.73,8.83-15.93-2.4-4.93-2.65-6.4-10-8.16-5.5-1.32-9-1.26-11.86,6L81.3,18.73a37.6,37.6,0,0,0-38.26,0l-1.27-3.28C39,8.2,35.41,8.14,29.91,9.46c-7.33,1.76-7.58,3.23-10,8.16-3.5,7.2,2.83,12.26,8.83,15.93h0c-9.18,9.93-8.5,25.68-8,30,1.52-2.56,2.69-3.86,3.77-4.43-.58,7,3.12,15,6.32,20.11L11.1,90.51l-2,6.94,53,2.54h0V94.15L55.9,87,49.45,79.7,62.14,82h0V64.35c-3.73-.08-6.09.55-7.1,1.89a4.23,4.23,0,0,1,2.54,2,6.86,6.86,0,0,0-3.32-.82c-.7,3.47.05,5.69,2.26,6.68q3.53,1,4.1,3.5v2.33L47.72,77.56l-.92-1.14c-1.69-2.07-1.69-2.07-1.51-5.83.08-1.48.18-3.52.37-5.89l6-5L45.9,62.07a83.06,83.06,0,0,1,1.56-9.82,8.93,8.93,0,0,1,2.4-4c-5.45.55-8.55-2-13.84-4.64l13.3.18,2.62,2.56c.38-.3.77-.61,1.17-.9L48,38.36h-12l14.44-3.79,8.46,7.31.31-.18.43-.2-2.2-3.8q2.61,1.57,4.81,2.68,2.2-1.11,4.81-2.68l-2.2,3.81a4.33,4.33,0,0,1,.75.36L74,34.57l14.44,3.79h-12l-5.21,7.21c.4.29.79.58,1.16.88L75,43.83l13.3-.18C83,46.29,79.9,48.86,74.41,48.29a8.61,8.61,0,0,1,2.47,4,85.35,85.35,0,0,1,1.57,9.94l-.09-.12L72.6,59.68l6.08,5.08c.19,2.35.29,4.37.37,5.83.18,3.76.18,3.76-1.51,5.83l-.92,1.14L63.68,79.91V77.58q.57-2.49,4.1-3.5c2.21-1,3-3.21,2.26-6.68a6.86,6.86,0,0,0-3.32.82,4.23,4.23,0,0,1,2.54-2c-1-1.34-3.37-2-7.1-1.89V82h0L74.89,79.7,68.44,87h0l-6.27,7.12V100h0l53-2.54Z" transform="translate(-9.14 -8.8)"/></svg>