<svg id="Layer_1" data-name="Layer 1" xmlns="http://www.w3.org/2000/svg" viewBox="0 0 374.86 322.28"><defs><style>.cls-1{fill:#fff;fill-rule:evenodd;}</style></defs><title>jowood-logo-head</title><path class="cls-1" d="M379.07,298.49l-69.89-39.78c11.31-18.15,24.41-46.45,22.36-71,3.8,2,7.94,6.6,13.33,15.66,1.81-15.38,4.21-71-28.23-106.14h0c21.21-13,43.59-30.88,31.22-56.3-8.47-17.41-9.38-22.63-35.27-28.84-19.44-4.67-32-4.45-41.91,21.16l-4.51,11.6A132.9,132.9,0,0,0,131,44.8l-4.5-11.6C116.51,7.59,104,7.37,84.55,12c-25.89,6.21-26.8,11.43-35.28,28.84-12.36,25.42,10,43.34,31.23,56.3h0c-32.44,35.09-30,90.76-28.23,106.14,5.39-9.06,9.53-13.64,13.33-15.66-2,24.61,11,52.91,22.35,71.06L18.07,298.49,11.14,323l187.43,9h0V311.36L176.43,286.2,153.6,260.27l44.87,8.18v0h.1V206.05q-19.75-.44-25.08,6.67a14.89,14.89,0,0,1,9,7q-6.51-3.18-11.72-2.93-3.73,18.41,8,23.61,12.48,3.58,14.5,12.38l.05,8.26L147.5,252.7l-3.26-4c-6-7.31-6-7.31-5.32-20.6.26-5.2.63-12.44,1.31-20.81l21.22-17.72L141.08,198a297.73,297.73,0,0,1,5.49-34.71c1.05-4.68,4.12-9.39,8.49-14-19.25,1.94-30.21-7.1-48.9-16.4l47,.62,9.26,9.05c1.33-1.07,2.71-2.14,4.14-3.19l-18.22-25.17H105.78l51.05-13.41,29.91,25.82,1.09-.61a14.83,14.83,0,0,1,1.5-.7l-7.77-13.43q9.24,5.52,17,9.46,7.77-3.93,17-9.46l-7.76,13.43a16.05,16.05,0,0,1,2.63,1.28l29.86-25.79,51.06,13.41H248.8l-18.43,25.45c1.42,1,2.8,2.08,4.12,3.13L244,133.5l47-.62c-18.78,9.34-29.75,18.42-49.16,16.38,4.51,4.56,7.67,9.22,8.75,14a299.66,299.66,0,0,1,5.53,35.13l-.31-.42-20.36-8.44,21.5,18c.67,8.28,1,15.43,1.29,20.58.66,13.29.66,13.29-5.32,20.6l-3.26,4L203.89,261l.05-8.26q2-8.81,14.49-12.38,11.72-5.21,8-23.61-5.21-.25-11.72,2.93a14.87,14.87,0,0,1,8.95-7q-5.31-7.09-25.07-6.67v62.42h.09v0l44.87-8.18L220.71,286.2h0l-22.14,25.16V332h0L386,323Z" transform="translate(-11.14 -9.71)"/></svg>