<svg id="Layer_1" data-name="Layer 1" xmlns="http://www.w3.org/2000/svg" viewBox="0 0 313.01 241.97"><defs><style>.cls-1,.cls-2{fill:#1d1d1b;}.cls-1{fill-rule:evenodd;}</style></defs><title>jowood-logo-min</title><path class="cls-1" d="M274.56,169,240,149.36c5.6-9,12.08-23,11.07-35.15,1.87,1,3.92,3.27,6.59,7.75.89-7.61,2.08-35.15-14-52.51h0c10.49-6.41,21.56-15.27,15.45-27.84-4.19-8.62-4.64-11.2-17.45-14.27C232.06,25,225.87,25.14,221,37.81l-2.23,5.74a65.68,65.68,0,0,0-66.88,0l-2.23-5.74C144.68,25.14,138.49,25,128.88,27.34c-12.81,3.07-13.26,5.65-17.45,14.27-6.12,12.57,4.95,21.43,15.44,27.84h0c-16,17.36-14.86,44.9-14,52.51,2.66-4.48,4.71-6.75,6.59-7.75-1,12.18,5.47,26.18,11.06,35.15L96,169l-3.43,12.13,92.72,4.44h0V175.4l-11-12.44L163,150.13l22.2,4v0h.05V123.31q-9.78-.21-12.41,3.3a7.32,7.32,0,0,1,4.43,3.46,12.08,12.08,0,0,0-5.8-1.45q-1.84,9.1,3.95,11.68,6.17,1.77,7.17,6.12l0,4.09L160,146.39c-.85-1.07-1.44-1.8-1.61-2-3-3.61-3-3.61-2.63-10.19.13-2.57.31-6.15.65-10.3l10.49-8.76-10.07,4.18a148.17,148.17,0,0,1,2.71-17.17,15.51,15.51,0,0,1,4.21-6.92c-9.53,1-14.95-3.52-24.19-8.12l23.25.31,4.58,4.48c.65-.53,1.34-1.06,2-1.58l-9-12.45H139.38l25.25-6.64L179.43,84l.54-.3a5.6,5.6,0,0,1,.74-.35l-3.84-6.65q4.56,2.75,8.41,4.68,3.84-1.94,8.41-4.68l-3.84,6.65a7.84,7.84,0,0,1,1.3.63l14.77-12.76,25.26,6.64H210.13L201,90.46c.7.51,1.38,1,2,1.55l4.69-4.59L231,87.11c-9.29,4.62-14.72,9.12-24.32,8.11a14.91,14.91,0,0,1,4.33,6.93,146.49,146.49,0,0,1,2.73,17.37l-.15-.2-10.07-4.18L214.15,124c.33,4.1.51,7.63.63,10.18.33,6.58.33,6.58-2.63,10.19l-1.61,2-22.63,4.12,0-4.09q1-4.35,7.16-6.12,5.81-2.58,4-11.68a12.11,12.11,0,0,0-5.8,1.45,7.35,7.35,0,0,1,4.43-3.46q-2.62-3.51-12.4-3.3v30.87h0v0l22.19-4L196.23,163h0L185.28,175.4v10.21h0L278,181.17Zm-23.51-54.83Zm-131.55,0Zm20.75-58.56h0v0h0v0h0v0h0v0h0v-.05h0v0h0v-.06h0V55h0v-.26h0v-.3h0l0-.11v-.16l0-.15v-.24l0-.16v-.35h0V53.1h0V52.8h0V52.7c0-.16,0-.33,0-.51v-.32a29.75,29.75,0,0,0-.47-5.79c-1.19-6.51-2.73-9.59-10.14-8.34q-4.8.8-9.74,5.09c2.53-6.4,6.44-9.81,13.55-9.37,7.35.46,8,4.8,10.58,10.48L146,47.41l0,.07,0,.09,0,.1,0,.09,0,.1,0,.09,0,.09,0,.1,0,.09,0,.1,0,.1,0,.09,0,.1,0,.1,0,.1,0,.09.05.1.05.1,0,.1,0,.1,0,.1,0,.1.05.1S142.14,53.93,140.25,55.65Zm90.16-9.57a29.09,29.09,0,0,0-.48,5.79v.32c0,.18,0,.35,0,.51v.09h0v.29h0v.16h0V54l0,.15v.27h0v.3h0V55h0v.22h0v.06h0v0h0v.05h0v0h0v0h0v0h0v0h0c-1.89-1.72-6.78-6-6.78-6l0-.1.05-.1,0-.1,0-.1,0-.1.05-.1,0-.1.05-.09,0-.1.05-.1,0-.1.05-.09,0-.1,0-.1.05-.09,0-.1.05-.09,0-.09,0-.1.05-.09,0-.1,0-.09,0-.07,1.61-3.47c2.62-5.68,3.23-10,10.59-10.48,7.1-.44,11,3,13.54,9.37q-4.93-4.29-9.73-5.09C233.13,36.49,231.6,39.57,230.41,46.08Z" transform="translate(-26.99 -26.19)"/><path class="cls-2" d="M278.05,259.75c-7.7-.74-15.39-1.36-23.08-1.93-2.23-.16-4.16-1.5-5.73-3.93a15.69,15.69,0,0,1-2.41-8.69l5.85-7.74-5.85,3.78v-36.8c2.1-1.4,4.19-2.82,6.29-4.27-2.1.08-4.19.15-6.29.21a15.75,15.75,0,0,1,2.41-8.72c1.57-2.45,3.51-3.79,5.73-3.92q11.54-.7,23.08-1.61c2.25-.18,4.12,1,5.69,3.39a16.65,16.65,0,0,1,2.38,9.18v26.06c-1.91,1.63-3.82,3.24-5.73,4.85l5.73.14v17.68a16.12,16.12,0,0,1-2.38,9.08c-1.57,2.38-3.44,3.46-5.69,3.24M269,246.2a2.78,2.78,0,0,0,2.5-1.49,7,7,0,0,0,1-3.93V205a7.41,7.41,0,0,0-1-4,2.82,2.82,0,0,0-2.5-1.56l-3.57.14a3.24,3.24,0,0,0-2.56,1.77,7.4,7.4,0,0,0-1.1,4v34.95a7.31,7.31,0,0,0,1,3.93,3.39,3.39,0,0,0,2.72,1.76Z" transform="translate(-26.99 -26.19)"/><path class="cls-2" d="M236.3,256.79q-11.6-.57-23.11-.92c-2.22-.07-4.13-1.23-5.73-3.52a14.08,14.08,0,0,1-2.37-8.24q2.9-3.74,5.84-7.52c-2,1.24-3.91,2.49-5.84,3.73V205.1c2.06-1.31,4.16-2.63,6.25-4-2.09,0-4.19.06-6.25.08a14.18,14.18,0,0,1,2.37-8.27c1.6-2.32,3.51-3.52,5.73-3.57,7.69-.19,15.38-.45,23.11-.76,2.22-.09,4.13,1,5.69,3.31a14.78,14.78,0,0,1,2.35,8.5v23.91l-5.69,4.51,5.69.09v16.22a14.44,14.44,0,0,1-2.35,8.43c-1.56,2.25-3.47,3.31-5.69,3.21m-9.13-12.32A3,3,0,0,0,229.7,243a6.32,6.32,0,0,0,1-3.69V206a6.57,6.57,0,0,0-1-3.74,2.93,2.93,0,0,0-2.53-1.52l-3.57.08a3.15,3.15,0,0,0-2.56,1.6,6.46,6.46,0,0,0-1.07,3.75v32.92a6.46,6.46,0,0,0,1,3.7,3.23,3.23,0,0,0,2.69,1.57Z" transform="translate(-26.99 -26.19)"/><path class="cls-2" d="M190.69,255.45H175.87c-1.85-3.14-3.66-6.29-5.48-9.43-1.78,3.19-3.53,6.37-5.28,9.54q-7.43.12-14.83.31c-2.06-3.52-4.13-7.07-6.19-10.62s-4.13-7.13-6.19-10.72V205l6.19-3.93c-2.07,0-4.13-.07-6.19-.13v-6.55c-.79-1.75-1.57-3.52-2.35-5.28q10.23.33,20.52.54c-1.16,1.25-2.32,2.49-3.44,3.74,0,6.11,0,12.21,0,18.33s0,12.21.06,18.33c1.69,3.28,3.41,6.54,5.13,9.8q2.78-4.94,5.54-9.86c0-5.85,0-11.71,0-17.56s0-11.7.06-17.56q-1.22-2.55-2.38-5.13,10.28.12,20.55.15c-1.16,1.25-2.31,2.49-3.44,3.74v18.16q0,9.08.06,18.16l5.16,9.76q2.82-4.89,5.63-9.77v-35c-.81-1.7-1.59-3.37-2.37-5.08q9.38,0,18.76-.18c-.93,1.73-1.87,3.45-2.78,5.16v29.32L197,228.5l5.72,0v5.73c-2,3.54-4,7.1-6,10.63s-4,7.05-6,10.57" transform="translate(-26.99 -26.19)"/><path class="cls-2" d="M115.66,257.4c-7.7.51-15.39,1.08-23.09,1.77-2.25.19-4.16-.85-5.75-3.22A15.76,15.76,0,0,1,84.44,247c1.94-2.93,3.88-5.83,5.85-8.71-2,1.48-3.91,3-5.85,4.47V203.4q3.11-2,6.26-4l-6.26-.31a16.1,16.1,0,0,1,2.38-9c1.59-2.43,3.5-3.54,5.75-3.37q11.55.83,23.09,1.46,3.33.18,5.69,3.85a15.64,15.64,0,0,1,2.35,8.63v23.73c-1.91,1.53-3.82,3.07-5.7,4.63l5.7-.07V245a15.47,15.47,0,0,1-2.35,8.58c-1.57,2.43-3.47,3.7-5.69,3.84m-9.14-11.8a3.17,3.17,0,0,0,2.54-1.69,7.11,7.11,0,0,0,1-3.9V205.56a7.33,7.33,0,0,0-1-3.93,3.13,3.13,0,0,0-2.54-1.72l-3.56-.14a2.87,2.87,0,0,0-2.57,1.55,7.15,7.15,0,0,0-1.06,3.94v35.19a6.88,6.88,0,0,0,1,3.88,2.94,2.94,0,0,0,2.72,1.45Z" transform="translate(-26.99 -26.19)"/><path class="cls-2" d="M325.36,265.82c-13.1-2-26.21-3.73-39.28-5.23q1.46-3.42,2.91-6.9v-4.47c2.37-3.35,4.75-6.72,7.13-10.16-2.38,1.92-4.76,3.8-7.13,5.67V189.32c2.5-2,5-4.12,7.57-6.23-2.54.26-5.07.52-7.57.75v-9.09l-2.91-6.83c13.07-1.9,26.18-4,39.28-6.6,4.07-.79,7.52,1.11,10.36,6S340,178.72,340,186.43v18c-2.38,2.5-4.72,5-7.07,7.36,2.35-.08,4.69-.13,7.07-.21v28.43c0,7.73-1.43,14.21-4.28,19.29s-6.29,7.1-10.36,6.47m-7.47-13.9a2.49,2.49,0,0,0,2.47-1.49,8.32,8.32,0,0,0,1-4.21V184.43a5.64,5.64,0,0,0-.72-2.92,1.75,1.75,0,0,0-1.75-1c-3.85.48-7.7,1-11.54,1.43v68.93C310.82,251.17,314.35,251.55,317.89,251.92Z" transform="translate(-26.99 -26.19)"/><path class="cls-2" d="M84.32,260.1q-28.66,3.25-57.33,8c1.13-3,2.25-6,3.41-9,2.22-.31,4.44-.63,6.69-1-2.25-1.92-4.47-3.91-6.69-5.91v-33q9.33,7.56,18.67,14.51v6.92a8.24,8.24,0,0,0,1,4.17,2.48,2.48,0,0,0,2.38,1.51c3.53-.31,7.1-.59,10.66-.87V182.46q-5.8-.68-11.63-1.4c-.62-.08-1.19.29-1.66,1.13a5.91,5.91,0,0,0-.72,3v9.14q-9.33-.81-18.67-1.73V167.69c-1.16-3-2.28-6.1-3.41-9.19q28.67,6.08,57.33,10.18l-2.91,6.76v8.88c-2.53-.24-5.06-.46-7.57-.71q3.76,3.19,7.57,6.28v49.92q-3.55-2.82-7.13-5.74,3.57,5.15,7.13,10.17v9c1,2.3,1.94,4.57,2.91,6.84" transform="translate(-26.99 -26.19)"/></svg>