<svg id="Layer_1" data-name="Layer 1" xmlns="http://www.w3.org/2000/svg" viewBox="0 0 169.47 145.72"><defs><style>.cls-1,.cls-2{fill:#cca882;}.cls-1{fill-rule:evenodd;}</style></defs><title>jowood-logo-light</title><path class="cls-1" d="M148.07,85.62,129.35,75c3-4.87,6.54-12.45,6-19,1,.54,2.13,1.77,3.57,4.19.49-4.12,1.13-19-7.56-28.43h0c5.68-3.47,11.68-8.27,8.37-15.07-2.27-4.67-2.52-6.06-9.45-7.73-5.21-1.25-8.56-1.19-11.23,5.67l-1.2,3.11a35.59,35.59,0,0,0-36.21,0l-1.21-3.11c-2.67-6.86-6-6.92-11.23-5.67C62.26,10.57,62,12,59.75,16.63c-3.31,6.8,2.68,11.6,8.36,15.07-8.69,9.4-8,24.31-7.56,28.43,1.44-2.43,2.55-3.65,3.57-4.19-.55,6.59,3,14.17,6,19L51.39,85.62l-1.86,6.57,50.2,2.4h0l50.2-2.4ZM135.34,55.94Zm-71.22,0Zm5.69-41.41a10.93,10.93,0,0,0-5.27,2.76C65.9,13.83,68,12,71.87,12.22s4.31,2.6,5.73,5.67l.87,1.88,0,0,0,.05,0,.05,0,.05,0,.05,0,0,0,.05,0,.05,0,.06,0,.05,0,.05,0,.05,0,.05,0,.06,0,.05,0,0,0,.06,0,.05,0,0,0,.06,0,.05,0,.06L79,21s-2.65,2.34-3.67,3.27h0v0h0v0h0v0h0v0h0v0h0v0h0v0h0v0h0v-.05h0v-.1h0v-.06h0v-.06h0v-.19h0v-.22h0v-.14h0v-.09h0v-.15h0v-.05c0-.08,0-.18,0-.27v-.05h0v-.12a15.47,15.47,0,0,0-.25-3.13C74.65,15.52,73.82,13.86,69.81,14.53Zm35.85,67.8h0l-5.93,6.74L93.8,82.33l-6.11-7,12,2.19h.06l12-2.19Zm3.69-38.42,2.54-2.48,12.59-.16c-5,2.5-8,4.93-13.17,4.38a8.13,8.13,0,0,1,2.35,3.76,79.32,79.32,0,0,1,1.48,9.4l-.08-.11-5.46-2.26,5.76,4.81c.18,2.21.28,4.13.35,5.51.17,3.56.17,3.56-1.43,5.52l-.87,1.08-12.25,2.23V73.38q.54-2.35,3.88-3.32,3.14-1.4,2.14-6.32a6.56,6.56,0,0,0-3.14.78,4,4,0,0,1,2.4-1.87q-1.42-1.9-6.72-1.79c-3.53-.08-5.76.52-6.72,1.79a4,4,0,0,1,2.4,1.87,6.53,6.53,0,0,0-3.14-.78q-1,4.92,2.14,6.32,3.34,1,3.88,3.32l0,2.21L86.05,73.36l-.87-1.08c-1.6-2-1.6-2-1.42-5.52.07-1.39.16-3.33.35-5.58l5.68-4.74L84.34,58.7a79.19,79.19,0,0,1,1.46-9.29,8.47,8.47,0,0,1,2.28-3.75c-5.16.52-8.09-1.9-13.1-4.39l12.59.16,2.48,2.43c.36-.29.73-.58,1.11-.86l-4.88-6.74H74.88l13.67-3.59,8,6.91.3-.16a3.71,3.71,0,0,1,.4-.19l-2.08-3.59c1.64,1,3.16,1.83,4.55,2.53,1.39-.7,2.91-1.55,4.56-2.53l-2.09,3.59a4.25,4.25,0,0,1,.71.34l8-6.9,13.67,3.59h-11.4l-4.93,6.82C108.63,43.36,109,43.63,109.35,43.91Zm14.82-24.86a14.86,14.86,0,0,0-.26,3.13v.12h0v.05a2.53,2.53,0,0,1,0,.27v.05h0v.15h0v.09h0v.14h0v.22h0v.19h0v.06h0v.06h0v.1h0v.05h0v0h0v0h0v0h0v0h0v0h0v0h0v0h0v0h0c-1-.93-3.67-3.27-3.67-3.27l0-.05,0-.06,0-.05,0-.06,0,0,0-.05,0-.06,0,0,0-.05,0-.06,0-.05,0-.05,0-.05,0-.05,0-.06,0-.05,0-.05,0,0,0-.05,0-.05,0-.05,0-.05,0,0,.87-1.88c1.42-3.07,1.75-5.43,5.73-5.67s6,1.61,7.33,5.07a10.89,10.89,0,0,0-5.27-2.76C125.64,13.86,124.81,15.52,124.17,19.05Z" transform="translate(-14.03 -8.28)"/><path class="cls-2" d="M150,134.73c-4.17-.4-8.33-.73-12.5-1a4.1,4.1,0,0,1-3.1-2.13,8.45,8.45,0,0,1-1.3-4.7l3.17-4.19-3.17,2V104.79c1.13-.76,2.27-1.53,3.4-2.31l-3.4.11a8.52,8.52,0,0,1,1.3-4.72,4,4,0,0,1,3.1-2.12q6.25-.39,12.5-.88A3.31,3.31,0,0,1,153,96.71a9,9,0,0,1,1.29,5v14.11l-3.1,2.63,3.1.07v9.58A8.73,8.73,0,0,1,153,133a3.22,3.22,0,0,1-3.08,1.75M145,127.4a1.51,1.51,0,0,0,1.36-.81,3.79,3.79,0,0,0,.55-2.13V105.1a4,4,0,0,0-.55-2.17,1.51,1.51,0,0,0-1.36-.84l-1.93.07a1.77,1.77,0,0,0-1.39,1,4,4,0,0,0-.59,2.17v18.92a4,4,0,0,0,.56,2.13,1.83,1.83,0,0,0,1.47,1Z" transform="translate(-14.03 -8.28)"/><path class="cls-2" d="M127.36,133.13c-4.19-.2-8.35-.37-12.52-.5a3.87,3.87,0,0,1-3.1-1.9,7.64,7.64,0,0,1-1.28-4.47l3.16-4.06-3.16,2V105.14l3.38-2.14-3.38,0a7.7,7.7,0,0,1,1.28-4.48,3.88,3.88,0,0,1,3.1-1.93c4.17-.1,8.33-.25,12.52-.41A3.48,3.48,0,0,1,130.44,98a8.08,8.08,0,0,1,1.27,4.6v13L128.63,118l3.08,0v8.78a7.81,7.81,0,0,1-1.27,4.56,3.47,3.47,0,0,1-3.08,1.74m-5-6.67a1.59,1.59,0,0,0,1.37-.79,3.34,3.34,0,0,0,.56-2v-18a3.56,3.56,0,0,0-.56-2,1.59,1.59,0,0,0-1.37-.83l-1.93,0a1.71,1.71,0,0,0-1.39.87,3.48,3.48,0,0,0-.57,2v17.82a3.5,3.5,0,0,0,.55,2,1.77,1.77,0,0,0,1.46.85Z" transform="translate(-14.03 -8.28)"/><path class="cls-2" d="M102.66,132.41h-8c-1-1.7-2-3.41-3-5.11l-2.86,5.17c-2.68,0-5.35.09-8,.16l-3.35-5.75c-1.12-1.92-2.23-3.85-3.35-5.8v-16L77.43,103l-3.35-.07V99.33c-.43-1-.85-1.9-1.27-2.86,3.69.12,7.4.22,11.11.3-.63.67-1.26,1.34-1.87,2,0,3.31,0,6.61,0,9.92s0,6.62,0,9.93q1.38,2.65,2.78,5.3l3-5.33c0-3.17,0-6.34,0-9.51s0-6.33,0-9.51c-.44-.92-.86-1.85-1.29-2.78l11.13.09c-.63.67-1.26,1.34-1.86,2v9.83q0,4.92,0,9.83l2.79,5.29,3-5.29v-19c-.44-.92-.86-1.83-1.29-2.75,3.39,0,6.78,0,10.17-.1-.51.94-1,1.87-1.51,2.79v15.88l-3.1,2.36,3.1,0v3.1c-1.09,1.92-2.19,3.84-3.25,5.75s-2.17,3.82-3.24,5.73" transform="translate(-14.03 -8.28)"/><path class="cls-2" d="M62,133.46c-4.17.28-8.33.59-12.5,1a3.32,3.32,0,0,1-3.12-1.74,8.57,8.57,0,0,1-1.28-4.85c1-1.58,2.1-3.16,3.16-4.71-1.06.79-2.11,1.61-3.16,2.42V104.23c1.12-.74,2.25-1.47,3.38-2.19l-3.38-.17A8.81,8.81,0,0,1,46.42,97a3.38,3.38,0,0,1,3.12-1.82q6.26.45,12.5.79A4,4,0,0,1,65.12,98a8.54,8.54,0,0,1,1.27,4.68v12.85c-1,.83-2.07,1.66-3.08,2.5l3.08,0v8.72a8.4,8.4,0,0,1-1.27,4.64A4,4,0,0,1,62,133.46m-4.95-6.38a1.74,1.74,0,0,0,1.37-.92,3.8,3.8,0,0,0,.56-2.11V105.4a3.85,3.85,0,0,0-.56-2.13,1.67,1.67,0,0,0-1.37-.93l-1.93-.08a1.55,1.55,0,0,0-1.39.84,3.89,3.89,0,0,0-.57,2.13v19a3.63,3.63,0,0,0,.56,2.1,1.56,1.56,0,0,0,1.47.79C55.82,127.14,56.45,127.1,57.09,127.08Z" transform="translate(-14.03 -8.28)"/><path class="cls-2" d="M175.58,138q-10.65-1.64-21.27-2.83c.52-1.24,1.05-2.48,1.57-3.74V129q1.94-2.72,3.86-5.5-1.92,1.56-3.86,3.07v-30c1.36-1.1,2.73-2.23,4.1-3.37-1.37.14-2.74.28-4.1.4V88.71L154.31,85c7.08-1,14.17-2.2,21.27-3.58,2.2-.42,4.07.61,5.6,3.26A20.56,20.56,0,0,1,183.5,95v9.77c-1.29,1.36-2.56,2.68-3.83,4,1.27,0,2.54-.08,3.83-.12v15.4a21.14,21.14,0,0,1-2.32,10.44c-1.53,2.73-3.4,3.84-5.6,3.5m-4.05-7.53a1.34,1.34,0,0,0,1.34-.8,4.55,4.55,0,0,0,.52-2.28V94a3,3,0,0,0-.39-1.58.94.94,0,0,0-.95-.57l-6.25.77V129.9Z" transform="translate(-14.03 -8.28)"/><path class="cls-2" d="M45.07,134.92q-15.53,1.77-31,4.36c.61-1.62,1.22-3.25,1.85-4.87l3.62-.52c-1.22-1-2.42-2.12-3.62-3.21V112.84q5.05,4.09,10.11,7.85v3.75a4.5,4.5,0,0,0,.52,2.26,1.35,1.35,0,0,0,1.29.82c1.91-.17,3.84-.32,5.77-.47V92.89l-6.3-.76c-.33,0-.64.16-.89.61A3.17,3.17,0,0,0,26,94.35v5q-5.05-.43-10.11-.94V84.89c-.63-1.65-1.24-3.3-1.85-5q15.53,3.28,31,5.51L43.5,89.09V93.9c-1.37-.13-2.75-.25-4.1-.39,1.35,1.16,2.73,2.28,4.1,3.4v27q-1.94-1.53-3.86-3.11c1.28,1.86,2.57,3.69,3.86,5.51v4.88c.52,1.25,1,2.48,1.57,3.7" transform="translate(-14.03 -8.28)"/><path class="cls-1" d="M142.42,148.36v-2.65l2.77.25v-1l-2.77-.25v-2.33l3.83.35v-1l-4.91-.44c0,1.31,0,2.62,0,3.93v3.93l5.06.46v-1l-4-.36m-2.5-6.14v-1l-4.74-.36v7.87l1.07.08v-3.38l2.7.19v-.93l-2.7-.2V142Zm-7.56-1.5v7.87l1.07.07v-7.87Zm-5,6.61v-6.89l-1.09-.05v7.86l4.69.25v-1Zm-9.81-3.46c0-1,0-1.92,0-2.88l.8,0,.71,0a3.84,3.84,0,0,1,.6.13,1.32,1.32,0,0,1,.52.23,1.29,1.29,0,0,1,.32.42,1.64,1.64,0,0,1,.13.65,1.49,1.49,0,0,1-.17.77,1,1,0,0,1-.5.44,2.78,2.78,0,0,1-.67.18,5.13,5.13,0,0,1-.81,0Zm4.46,4.2-2-3.43a2,2,0,0,0,1.76-2.13,2.54,2.54,0,0,0-.23-1.06,2,2,0,0,0-.54-.7,2.48,2.48,0,0,0-.83-.41,5.49,5.49,0,0,0-.94-.2,8.66,8.66,0,0,0-1-.07l-1.82-.06v7.87l1.09,0c0-1.06,0-2.11,0-3.17l.87,0h.53c.61,1.08,1.22,2.16,1.84,3.24Zm-10.92-1.26a2.93,2.93,0,0,1-2-.83,2.86,2.86,0,0,1-.87-2.2,2.77,2.77,0,0,1,2.88-2.93,3,3,0,0,1,2,.83,2.92,2.92,0,0,1,.85,2.22,2.73,2.73,0,0,1-2.88,2.91Zm0,1a3.8,3.8,0,0,0,2.84-1.07,3.73,3.73,0,0,0,1.16-2.85,4,4,0,0,0-4-4.11,3.88,3.88,0,0,0-4,4,3.91,3.91,0,0,0,1.17,2.9,4,4,0,0,0,2.84,1.18Zm-4.81-7.05v-1l-4.73,0v7.86h1.07v-3.38l2.69,0v-.94l-2.69,0v-2.58Zm-14.19,6v-6H93a3.19,3.19,0,0,1,2.26.74,2.75,2.75,0,0,1,.84,2.14,2.8,2.8,0,0,1-3,3.09Zm-1.07.92,1.77,0a4.6,4.6,0,0,0,3.3-1.09,3.9,3.9,0,0,0,1.11-2.92,3.72,3.72,0,0,0-1.12-2.82,4.63,4.63,0,0,0-3.34-1l-1.72,0v7.87Zm-2.82-7.84v6.08c-.69-1-1.36-2-2-3l-2-3-1,0v7.87l1.07,0v-6c.68,1,1.35,2,2,3s1.35,2,2,3l1,0v-7.87Zm-13,5a3.52,3.52,0,0,0,.78,2.47,2.94,2.94,0,0,0,2.35.79,3.19,3.19,0,0,0,2.28-.92,3.62,3.62,0,0,0,.82-2.57V140l-1.09,0v4.58a2.78,2.78,0,0,1-.48,1.76,1.93,1.93,0,0,1-1.53.64c-1.37,0-2-.71-2-2.26V140.2l-1.08.05v4.56Zm-5.36,2.62a2.73,2.73,0,0,1-2-.68,2.67,2.67,0,0,1-.87-2.14,3,3,0,0,1,.87-2.24,3,3,0,0,1,2-.9,2.68,2.68,0,0,1,2,.68,2.72,2.72,0,0,1,.85,2.16,3,3,0,0,1-.85,2.23,3.06,3.06,0,0,1-2,.9Zm0,1a4.18,4.18,0,0,0,2.85-1.27,4.06,4.06,0,0,0,1.16-2.93,3.71,3.71,0,0,0-4-3.83,4.24,4.24,0,0,0-4,4.26,3.59,3.59,0,0,0,1.17,2.8,3.72,3.72,0,0,0,2.84,1Zm-9.24-3.53c0-1,0-1.92,0-2.88l.8-.06.7,0a4.65,4.65,0,0,1,.61.06,1.37,1.37,0,0,1,.51.18,1.05,1.05,0,0,1,.32.39,1.38,1.38,0,0,1,.14.64,1.67,1.67,0,0,1-.17.78,1.26,1.26,0,0,1-.52.5,3.09,3.09,0,0,1-.66.25,5.48,5.48,0,0,1-.81.11Zm4.46,3.73-2-3.22a2.27,2.27,0,0,0,1.76-2.31,2.25,2.25,0,0,0-.23-1,1.66,1.66,0,0,0-.55-.64,2.13,2.13,0,0,0-.82-.33,5.47,5.47,0,0,0-.93-.1,8.91,8.91,0,0,0-1,0l-1.81.13V149l1.08-.08c0-1.05,0-2.11,0-3.17l.87-.06a4.54,4.54,0,0,0,.54,0c.6,1,1.22,2,1.84,3Zm-7.25-3.53-2.65.23v.9l1.63-.14V148a3.7,3.7,0,0,1-1.43.42,3,3,0,0,1-2.21-.6,2.59,2.59,0,0,1-.88-2.12,3.24,3.24,0,0,1,.82-2.24,3.31,3.31,0,0,1,2.24-1,2.93,2.93,0,0,1,2.14.52v-1.16a3.68,3.68,0,0,0-2.23-.4,4.42,4.42,0,0,0-3,1.4,4.32,4.32,0,0,0-1.14,3,3.55,3.55,0,0,0,1.14,2.79,3.89,3.89,0,0,0,3,.84,5.3,5.3,0,0,0,2.51-.83C57.8,147.47,57.8,146.3,57.81,145.12ZM43,139.48c7.28-.81,14.56-1.53,21.85-2s14.57-.71,21.85-.9c.29.68.57,1.37.86,2.05-.08-.69-.16-1.37-.23-2.06,10.15-.11,20.31-.15,30.46.17s20.32,1.06,30.48,2c.3.73.59,1.46.89,2.2-.09-.71-.17-1.43-.25-2.14l.79.08c.14.35.27.7.41,1,0-.33-.08-.67-.12-1l4.57.52a.43.43,0,0,0,0,.05.78.78,0,0,1,.58.4.7.7,0,0,1,0,.67h0c-.41.57-.81,1.15-1.2,1.72l-1.31,1.89a5.1,5.1,0,0,0-.66,2.43,5.48,5.48,0,0,0,.65,2.5q1.23,1.94,2.47,3.87h0a.7.7,0,0,1,0,.66.64.64,0,0,1-.59.27.07.07,0,0,1,0,0c-6.55-.72-13.11-1.37-19.66-1.82s-13.16-.69-19.73-.9c.07-.67.15-1.33.23-2-.29.66-.56,1.31-.84,2l-.84,0q.06-.66.15-1.32c-.19.44-.37.87-.55,1.31-10.8-.14-21.6-.22-32.4.12s-21.6,1.15-32.4,2.14c.25-.72.5-1.45.76-2.18l-1.54,2.27c-1.55.16-3.1.34-4.64.53h0a.64.64,0,0,1-.59-.27.72.72,0,0,1,0-.67l2.38-3.73a5.66,5.66,0,0,0,.74-2.69,5,5,0,0,0-.76-2.61c-.81-1.16-1.6-2.32-2.4-3.47h0a.7.7,0,0,1,0-.67A.79.79,0,0,1,43,139.48Z" transform="translate(-14.03 -8.28)"/></svg>