<svg id="Layer_1" data-name="Layer 1" xmlns="http://www.w3.org/2000/svg" viewBox="0 0 263.51 226.58"><defs><style>.cls-1,.cls-2{fill:#1d1d1b;}.cls-1,.cls-3{fill-rule:evenodd;}.cls-3{fill:#cca882;}</style></defs><title>jowood-logo</title><path class="cls-1" d="M223.1,132.72,194,116.16c4.71-7.56,10.16-19.35,9.31-29.59,1.58.84,3.31,2.75,5.55,6.52.75-6.4,1.75-29.59-11.76-44.2h0c8.84-5.4,18.16-12.86,13-23.44-3.53-7.26-3.91-9.43-14.69-12-8.1-1.94-13.31-1.85-17.45,8.82l-1.88,4.83a55.32,55.32,0,0,0-56.31,0l-1.87-4.83c-4.15-10.67-9.36-10.76-17.46-8.82-10.78,2.59-11.16,4.76-14.69,12-5.14,10.58,4.17,18,13,23.44h0C85.26,63.5,86.26,86.69,87,93.09c2.25-3.77,4-5.68,5.55-6.52-.85,10.25,4.6,22,9.31,29.59l-29.1,16.56-2.89,10.22,78.06,3.73h0v-8.59l-9.22-10.47-9.51-10.8,18.68,3.4v0h0v-26q-8.24-.18-10.45,2.78a6.17,6.17,0,0,1,3.73,2.91,10.17,10.17,0,0,0-4.88-1.22q-1.56,7.67,3.32,9.83c3.47,1,5.48,2.71,6,5.16l0,3.44-19-3.48c-.72-.89-1.22-1.51-1.36-1.67-2.49-3-2.49-3-2.21-8.58.1-2.17.26-5.18.54-8.67l8.84-7.38L124,90.87a123.37,123.37,0,0,1,2.28-14.46,13,13,0,0,1,3.54-5.82c-8,.8-12.58-3-20.37-6.83L129,64l3.85,3.78c.56-.45,1.13-.9,1.73-1.34L127,56H109.3l21.26-5.58L143,61.14l.46-.25a3.92,3.92,0,0,1,.62-.29L140.85,55q3.85,2.31,7.09,3.94c2.15-1.09,4.52-2.4,7.08-3.94l-3.24,5.6a6.6,6.6,0,0,1,1.1.53l12.44-10.74L186.58,56H168.85l-7.67,10.6c.59.44,1.17.87,1.72,1.31L166.84,64l19.58-.25C178.6,67.65,174,71.43,166,70.58a12.66,12.66,0,0,1,3.64,5.83A125.09,125.09,0,0,1,171.89,91l-.13-.17-8.47-3.52,9,7.48c.28,3.44.43,6.42.53,8.57.28,5.53.28,5.53-2.21,8.58-.14.16-.63.78-1.36,1.67l-19,3.48,0-3.44c.56-2.45,2.57-4.16,6-5.16q4.88-2.16,3.32-9.83a10.19,10.19,0,0,0-4.88,1.22A6.17,6.17,0,0,1,158.38,97q-2.22-3-10.44-2.78v26h0v0l18.68-3.4-9.5,10.8h0l-9.22,10.47v8.59h0L226,142.94ZM203.31,86.57Zm-110.75,0ZM110,37.27h0v0h0v0h0v0h0v0h0v0h0v0h0v-.06h0v0h0v-.07h0v-.07h0v-.14h0v-.25h0V35.5h0v-.22h0v-.39h0v-.07c0-.14,0-.29,0-.43v-.08h0v-.19a23.78,23.78,0,0,0-.4-4.87c-1-5.48-2.29-8.07-8.53-7a17,17,0,0,0-8.2,4.29c2.13-5.39,5.42-8.26,11.4-7.89,6.2.39,6.71,4,8.92,8.82l1.35,2.93,0,.05,0,.08,0,.08,0,.08,0,.08,0,.08,0,.08,0,.08,0,.08,0,.08,0,.08,0,.08,0,.08,0,.08,0,.09,0,.08,0,.08,0,.09,0,.08,0,.08,0,.09,0,.08,0,.09S111.62,35.82,110,37.27Zm75.9-8.06a24.51,24.51,0,0,0-.4,4.87v.19h0v.08c0,.14,0,.29,0,.43v.07h0v.39h0v.22h0v.75h0v.25h0v.14h0v.07h0v.07h0v0h0v.06h0v0h0v0h0v0h0v0h0v0h0v0h0c-1.59-1.45-5.7-5.08-5.7-5.08l0-.09,0-.08,0-.09,0-.08,0-.08,0-.09,0-.08,0-.08,0-.09,0-.08,0-.08,0-.08,0-.08,0-.08,0-.08,0-.08,0-.08,0-.08,0-.08,0-.08,0-.08,0-.08,0-.05,1.35-2.93c2.21-4.78,2.72-8.43,8.92-8.82,6-.37,9.27,2.5,11.4,7.89a17,17,0,0,0-8.2-4.29C188.22,21.14,186.93,23.73,185.93,29.21Z" transform="translate(-14.68 -12.46)"/><path class="cls-2" d="M226,209.09c-6.47-.62-12.95-1.14-19.43-1.62-1.87-.14-3.49-1.26-4.82-3.31a13.21,13.21,0,0,1-2-7.32l4.92-6.51-4.92,3.18v-31q2.64-1.77,5.29-3.59l-5.29.17a13.33,13.33,0,0,1,2-7.34c1.33-2.07,2.95-3.19,4.82-3.3q9.72-.6,19.43-1.36c1.9-.15,3.48.81,4.8,2.86a14,14,0,0,1,2,7.72v21.95L228,183.72c1.61,0,3.21.08,4.82.12v14.88a13.63,13.63,0,0,1-2,7.64c-1.32,2-2.9,2.91-4.8,2.73m-7.66-11.41a2.33,2.33,0,0,0,2.11-1.25,5.89,5.89,0,0,0,.87-3.31V163a6.22,6.22,0,0,0-.87-3.38,2.36,2.36,0,0,0-2.11-1.31l-3,.12a2.73,2.73,0,0,0-2.16,1.49,6.18,6.18,0,0,0-.92,3.37v29.41a6.07,6.07,0,0,0,.87,3.31,2.84,2.84,0,0,0,2.29,1.49Z" transform="translate(-14.68 -12.46)"/><path class="cls-2" d="M190.89,206.6q-9.75-.48-19.46-.77a6.05,6.05,0,0,1-4.82-3,11.85,11.85,0,0,1-2-6.94c1.63-2.09,3.27-4.21,4.93-6.32-1.66,1-3.3,2.09-4.93,3.13V163.08l5.27-3.34-5.27.07a12,12,0,0,1,2-7,6,6,0,0,1,4.82-3q9.72-.24,19.46-.64c1.87-.07,3.47.85,4.79,2.79a12.43,12.43,0,0,1,2,7.15v20.14l-4.8,3.79,4.8.07V196.8a12.2,12.2,0,0,1-2,7.1,5.4,5.4,0,0,1-4.79,2.7m-7.69-10.37a2.47,2.47,0,0,0,2.13-1.23,5.3,5.3,0,0,0,.87-3.1v-28a5.53,5.53,0,0,0-.87-3.15,2.45,2.45,0,0,0-2.13-1.28l-3,.06a2.68,2.68,0,0,0-2.16,1.36,5.46,5.46,0,0,0-.9,3.15v27.71a5.45,5.45,0,0,0,.87,3.12,2.75,2.75,0,0,0,2.27,1.32Z" transform="translate(-14.68 -12.46)"/><path class="cls-2" d="M152.49,205.47H140q-2.32-4-4.61-7.93c-1.5,2.67-3,5.36-4.45,8q-6.24.09-12.48.26l-5.21-8.94c-1.74-3-3.48-6-5.21-9V163l5.21-3.3c-1.74,0-3.48-.06-5.21-.11V154l-2-4.44c5.74.18,11.51.33,17.27.45-1,1-1.94,2.1-2.89,3.15,0,5.14,0,10.28,0,15.43s0,10.28,0,15.43c1.42,2.76,2.87,5.51,4.32,8.25l4.66-8.3c0-4.92,0-9.85,0-14.78s0-9.85.06-14.78c-.69-1.44-1.35-2.88-2-4.32q8.65.09,17.3.13c-1,1-1.94,2.09-2.89,3.14v15.29c0,5.09,0,10.2,0,15.29l4.34,8.21,4.74-8.22V154.5c-.68-1.42-1.34-2.83-2-4.27q7.9,0,15.8-.15c-.79,1.46-1.58,2.9-2.34,4.34v24.69l-4.82,3.67,4.82,0v4.82c-1.69,3-3.4,6-5.06,8.95s-3.37,5.94-5,8.9" transform="translate(-14.68 -12.46)"/><path class="cls-2" d="M89.33,207.11q-9.72.64-19.44,1.49c-1.89.17-3.5-.72-4.84-2.71a13.24,13.24,0,0,1-2-7.53c1.63-2.47,3.26-4.91,4.92-7.34-1.66,1.25-3.29,2.51-4.92,3.77V161.65c1.74-1.15,3.5-2.28,5.26-3.4L63.05,158a13.6,13.6,0,0,1,2-7.61c1.34-2,3-3,4.84-2.84q9.72.71,19.44,1.23c1.87.11,3.47,1.18,4.79,3.24a13.2,13.2,0,0,1,2,7.27v20c-1.6,1.29-3.21,2.58-4.79,3.89l4.79-.05v13.55a13,13,0,0,1-2,7.23c-1.32,2.05-2.92,3.11-4.79,3.23m-7.69-9.93a2.66,2.66,0,0,0,2.13-1.43,6,6,0,0,0,.87-3.28v-29a6.12,6.12,0,0,0-.87-3.31,2.64,2.64,0,0,0-2.13-1.45l-3-.12a2.44,2.44,0,0,0-2.16,1.31,6,6,0,0,0-.9,3.32v29.62a5.79,5.79,0,0,0,.87,3.27,2.46,2.46,0,0,0,2.29,1.22Z" transform="translate(-14.68 -12.46)"/><path class="cls-2" d="M265.87,214.2c-11-1.7-22.07-3.14-33.07-4.4.81-1.92,1.63-3.85,2.44-5.81v-3.77c2-2.82,4-5.65,6-8.55-2,1.62-4,3.2-6,4.78V149.8c2.11-1.71,4.24-3.47,6.38-5.25q-3.21.34-6.38.63v-7.65c-.81-1.92-1.63-3.84-2.44-5.75,11-1.59,22-3.41,33.07-5.55,3.42-.67,6.33.94,8.71,5.06s3.61,9.58,3.61,16.07v15.2q-3,3.16-5.95,6.2c2-.07,3.95-.11,5.95-.18v23.94c0,6.5-1.2,12-3.61,16.24s-5.29,6-8.71,5.44m-6.3-11.7a2.09,2.09,0,0,0,2.08-1.26,6.89,6.89,0,0,0,.82-3.54v-52a4.66,4.66,0,0,0-.61-2.45,1.45,1.45,0,0,0-1.47-.88l-9.72,1.2v58C253.62,201.87,256.6,202.19,259.57,202.5Z" transform="translate(-14.68 -12.46)"/><path class="cls-2" d="M63,209.39q-24.14,2.73-48.27,6.78c1-2.54,1.9-5.07,2.87-7.58l5.64-.82c-1.9-1.62-3.77-3.29-5.64-5V175.05q7.86,6.36,15.72,12.21v5.82a6.87,6.87,0,0,0,.82,3.52,2.08,2.08,0,0,0,2,1.27c3-.26,6-.5,9-.73V144l-9.8-1.18c-.52-.07-1,.24-1.39.94a5,5,0,0,0-.61,2.51V154q-7.86-.68-15.72-1.45V131.59c-1-2.56-1.92-5.14-2.87-7.74Q38.82,129,63,132.42q-1.23,2.85-2.45,5.7v7.47c-2.14-.2-4.27-.39-6.37-.6,2.1,1.8,4.23,3.55,6.37,5.29v42c-2-1.58-4-3.19-6-4.83q3,4.34,6,8.56v7.6c.81,1.94,1.63,3.85,2.45,5.76" transform="translate(-14.68 -12.46)"/><path class="cls-3" d="M214.31,230.27v-4.11l4.31.39v-1.48l-4.31-.39v-3.63l6,.55v-1.51l-7.63-.68c0,2,0,4.08,0,6.11v6.12c2.61.22,5.24.46,7.86.7v-1.5l-6.17-.57m-3.89-9.54v-1.5c-2.47-.2-4.92-.37-7.37-.55v12.23l1.67.12v-5.25l4.19.31v-1.46l-4.19-.3v-4Zm-11.75-2.33v12.23l1.67.11V218.51Zm-7.79,10.27V218l-1.69-.08v12.23q3.65.18,7.29.39V229Zm-15.25-5.38c0-1.49,0-3,0-4.47l1.25,0a10.34,10.34,0,0,1,1.1.07,6.52,6.52,0,0,1,.94.19,2.29,2.29,0,0,1,.8.37,1.73,1.73,0,0,1,.49.66,2.22,2.22,0,0,1,.22,1,2.32,2.32,0,0,1-.27,1.18,1.55,1.55,0,0,1-.78.69,4,4,0,0,1-1,.29,8.36,8.36,0,0,1-1.26,0Zm6.94,6.53-3.09-5.33a3.1,3.1,0,0,0,2.73-3.31,3.84,3.84,0,0,0-.35-1.64,3.09,3.09,0,0,0-.84-1.1,3.7,3.7,0,0,0-1.29-.63,9.48,9.48,0,0,0-1.46-.32c-.44-.05-.94-.09-1.54-.11l-2.83-.09v12.23l1.69,0c0-1.64,0-3.28,0-4.92l1.35,0h.83c.94,1.68,1.9,3.36,2.86,5Zm-17-1.95a4.59,4.59,0,0,1-3.12-1.29,4.46,4.46,0,0,1-1.35-3.42,4.31,4.31,0,0,1,4.47-4.56,4.45,4.45,0,0,1,4.47,4.74,4.33,4.33,0,0,1-1.31,3.37,4.38,4.38,0,0,1-3.16,1.16Zm0,1.59a6,6,0,0,0,4.42-1.67,5.84,5.84,0,0,0,1.79-4.42,6.23,6.23,0,0,0-6.23-6.4,6,6,0,0,0-6.23,6.16,6.06,6.06,0,0,0,1.81,4.5,6.29,6.29,0,0,0,4.42,1.84Zm-7.48-11V217l-7.36,0v12.24h1.67v-5.25l4.19,0v-1.46l-4.19,0v-4Zm-22.06,9.31v-9.3h1.37a5,5,0,0,1,3.51,1.15,4.27,4.27,0,0,1,1.3,3.33,4.71,4.71,0,0,1-1.28,3.58,4.77,4.77,0,0,1-3.37,1.23Zm-1.67,1.44,2.75,0a7.21,7.21,0,0,0,5.13-1.69A6.06,6.06,0,0,0,144,223a5.78,5.78,0,0,0-1.74-4.39,7.18,7.18,0,0,0-5.18-1.61l-2.68,0v12.24ZM130,217.05v9.46c-1.07-1.56-2.12-3.11-3.16-4.67l-3.15-4.66-1.58.06v12.23l1.67,0v-9.34l3.14,4.6c1,1.54,2.1,3.08,3.17,4.61l1.59,0V217Zm-20.24,7.7A5.47,5.47,0,0,0,111,228.6a4.54,4.54,0,0,0,3.66,1.22,4.88,4.88,0,0,0,3.53-1.42,5.56,5.56,0,0,0,1.28-4v-7.09l-1.68.06v7.12a4.34,4.34,0,0,1-.75,2.74,3,3,0,0,1-2.38,1c-2.13.07-3.19-1.09-3.19-3.51v-7.12l-1.69.07v7.09Zm-8.33,4.08a4.23,4.23,0,0,1-3.12-1.05A4.17,4.17,0,0,1,97,224.45,4.66,4.66,0,0,1,98.32,221a4.8,4.8,0,0,1,3.12-1.4,4.12,4.12,0,0,1,4.48,4.42,4.62,4.62,0,0,1-1.32,3.47,4.71,4.71,0,0,1-3.16,1.39Zm0,1.59a6.44,6.44,0,0,0,4.42-2,6.26,6.26,0,0,0,1.81-4.56,5.77,5.77,0,0,0-6.25-5.95,6.59,6.59,0,0,0-6.23,6.62A5.59,5.59,0,0,0,97,228.91a5.83,5.83,0,0,0,4.42,1.52Zm-14.38-5.49c0-1.49,0-3,0-4.48.41,0,.82-.06,1.24-.09a9.11,9.11,0,0,1,1.1-.05,5.59,5.59,0,0,1,1,.1,2.08,2.08,0,0,1,.79.28,1.55,1.55,0,0,1,.5.61,2.06,2.06,0,0,1,.21,1,2.62,2.62,0,0,1-.26,1.22,1.86,1.86,0,0,1-.8.77,4,4,0,0,1-1,.39,8,8,0,0,1-1.26.17Zm6.94,5.8-3.08-5a3.53,3.53,0,0,0,2.73-3.59,3.48,3.48,0,0,0-.36-1.61,2.67,2.67,0,0,0-.85-1,3.27,3.27,0,0,0-1.28-.5,9,9,0,0,0-1.45-.17c-.44,0-1,0-1.55,0l-2.82.22v12.23l1.69-.13c0-1.64,0-3.28,0-4.92l1.34-.1.84-.08c.94,1.58,1.9,3.16,2.86,4.74Zm-11.27-5.49-4.12.35V227l2.54-.23v3a5.93,5.93,0,0,1-2.23.65,4.58,4.58,0,0,1-3.43-.94,4,4,0,0,1-1.37-3.3,5,5,0,0,1,1.28-3.47,5.16,5.16,0,0,1,3.48-1.58,4.54,4.54,0,0,1,3.32.82v-1.81a5.75,5.75,0,0,0-3.46-.62,6.84,6.84,0,0,0-4.6,2.17,6.68,6.68,0,0,0-1.77,4.69,5.46,5.46,0,0,0,1.77,4.33A6,6,0,0,0,78.83,232a8.21,8.21,0,0,0,3.9-1.29C82.73,228.9,82.73,227.07,82.75,225.24Zm-23-8.77c11.33-1.25,22.65-2.39,34-3.12s22.65-1.1,34-1.4c.45,1.06.89,2.12,1.33,3.19-.12-1.07-.24-2.14-.35-3.21,15.78-.17,31.58-.24,47.36.26s31.6,1.65,47.4,3l1.38,3.43q-.21-1.66-.39-3.33l1.22.13c.22.54.43,1.08.64,1.62-.07-.52-.12-1.05-.17-1.57,2.36.26,4.73.52,7.09.8,0,0,0,.05,0,.08a1.23,1.23,0,0,1,.9.62,1.07,1.07,0,0,1,0,1h0c-.63.89-1.25,1.79-1.86,2.69s-1.35,1.95-2,2.93a8,8,0,0,0-1,3.78,8.47,8.47,0,0,0,1,3.88c1.28,2,2.55,4,3.84,6h0a1,1,0,0,1,0,1,.92.92,0,0,1-.9.41s0,.06,0,.08c-10.19-1.11-20.38-2.13-30.58-2.82s-20.45-1.07-30.67-1.4c.1-1,.23-2.07.35-3.1-.44,1-.87,2-1.3,3.07l-1.31,0c.07-.69.14-1.37.23-2.05-.28.67-.57,1.35-.85,2-16.79-.23-33.59-.34-50.38.18S85,236.54,68.21,238.09c.39-1.13.79-2.27,1.19-3.4L67,238.22c-2.42.26-4.83.54-7.23.82h0a.94.94,0,0,1-.9-.41,1.07,1.07,0,0,1,0-1l3.69-5.8a8.74,8.74,0,0,0,1.16-4.19,8,8,0,0,0-1.17-4.06q-1.89-2.7-3.75-5.4h0a1.1,1.1,0,0,1,0-1A1.25,1.25,0,0,1,59.71,216.47Z" transform="translate(-14.68 -12.46)"/></svg>